<svg xmlns="http://www.w3.org/2000/svg" viewBox="0 0 240 240" role="img" aria-labelledby="t d">
  <title id="t">Plomberie Boileau crest</title>
  <desc id="d">Circular spruce-green seal: company name arcs around a brass flame inside a water drop.</desc>
  <style>
    @import url('https://fonts.googleapis.com/css2?family=Bricolage+Grotesque:wght@500;600&amp;display=swap');
    .ring { font-family:'Bricolage Grotesque','Avenir Next','Helvetica Neue',Arial,sans-serif; font-weight:600; font-size:13.5px; letter-spacing:3px; fill:#F2F6F3; }
    .sub  { font-family:'Bricolage Grotesque','Avenir Next','Helvetica Neue',Arial,sans-serif; font-weight:500; font-size:11px; letter-spacing:3.4px; fill:#D99A3D; }
  </style>
  <circle cx="120" cy="120" r="118" fill="#157A55"/>
  <circle cx="120" cy="120" r="110" fill="none" stroke="#0C4A36" stroke-width="1.5"/>
  <circle cx="120" cy="120" r="80" fill="none" stroke="#D99A3D" stroke-width="1.8"/>
  <defs>
    <path id="arcTop" d="M 29 120 A 91 91 0 0 1 211 120"/>
    <path id="arcBot" d="M 21 120 A 99 99 0 0 0 219 120"/>
  </defs>
  <text class="ring"><textPath href="#arcTop" startOffset="50%" text-anchor="middle">PLOMBERIE BOILEAU INC.</textPath></text>
  <text class="sub"><textPath href="#arcBot" startOffset="50%" text-anchor="middle">MONTRÉAL · QUÉBEC</textPath></text>
  <circle cx="25" cy="120" r="2.6" fill="#D99A3D"/>
  <circle cx="215" cy="120" r="2.6" fill="#D99A3D"/>
  <g transform="translate(0,-3)">
    <path d="M120 62 C120 62 82 106 82 135 a38 38 0 0 0 76 0 C158 106 120 62 120 62 Z"
          fill="none" stroke="#F2F6F3" stroke-width="5" stroke-linejoin="round"/>
    <path d="M120 104 c9 10 15 18 15 28 a15 15 0 0 1 -30 0 c0 -6 3.5 -10.5 7 -14 c-1 5.5 1 8 3.5 9.5 c-2 -8 1 -17 4.5 -23.5 Z"
          fill="#D99A3D"/>
  </g>
</svg>
